<?xml version="1.0" encoding="UTF-8" standalone="no"?>
<svg
   height="128px"
   viewBox="0 0 128 128"
   width="128px"
   version="1.1"
   id="svg1962"
   sodipodi:docname="com.github.polymeilex.Cathode.svg"
   inkscape:version="1.1.2 (0a00cf5339, 2022-02-04)"
   xmlns:inkscape="http://www.inkscape.org/namespaces/inkscape"
   xmlns:sodipodi="http://sodipodi.sourceforge.net/DTD/sodipodi-0.dtd"
   xmlns:xlink="http://www.w3.org/1999/xlink"
   xmlns="http://www.w3.org/2000/svg"
   xmlns:svg="http://www.w3.org/2000/svg">
  <defs
     id="defs1966" />
  <sodipodi:namedview
     id="namedview1964"
     pagecolor="#ffffff"
     bordercolor="#666666"
     borderopacity="1.0"
     inkscape:pageshadow="2"
     inkscape:pageopacity="0.0"
     inkscape:pagecheckerboard="0"
     showgrid="false"
     inkscape:zoom="5.12"
     inkscape:cx="42.871094"
     inkscape:cy="72.753907"
     inkscape:window-width="1920"
     inkscape:window-height="1016"
     inkscape:window-x="0"
     inkscape:window-y="0"
     inkscape:window-maximized="1"
     inkscape:current-layer="g8694" />
  <linearGradient
     id="a"
     gradientTransform="matrix(0.707107,-0.707107,-0.707107,-0.707107,0,290)"
     gradientUnits="userSpaceOnUse"
     x1="168.29141"
     x2="243.24474"
     y1="77.781746"
     y2="152.73506"
     xlink:href="#j">
    <stop
       offset="0"
       stop-color="#3584e4"
       id="stop1895"
       style="stop-color:#ff00d7;stop-opacity:1" />
    <stop
       offset="1"
       stop-color="#8ff0a4"
       id="stop1893"
       style="stop-color:#840bbd;stop-opacity:1" />
  </linearGradient>
  <filter
     id="b"
     height="1"
     width="1"
     x="0"
     y="0">
    <feColorMatrix
       in="SourceGraphic"
       type="matrix"
       values="0 0 0 0 1 0 0 0 0 1 0 0 0 0 1 0 0 0 1 0"
       id="feColorMatrix1898" />
  </filter>
  <mask
     id="c">
    <g
       filter="url(#b)"
       id="g1903">
      <rect
         fill-opacity="0.95"
         height="128"
         width="128"
         id="rect1901" />
    </g>
  </mask>
  <clipPath
     id="d">
    <rect
       height="152"
       width="192"
       id="rect1906" />
  </clipPath>
  <mask
     id="e">
    <g
       filter="url(#b)"
       id="g1911">
      <rect
         fill-opacity="0.75"
         height="128"
         width="128"
         id="rect1909" />
    </g>
  </mask>
  <clipPath
     id="f">
    <rect
       height="152"
       width="192"
       id="rect1914" />
  </clipPath>
  <mask
     id="g">
    <g
       filter="url(#b)"
       id="g1919">
      <rect
         fill-opacity="0.4"
         height="128"
         width="128"
         id="rect1917" />
    </g>
  </mask>
  <clipPath
     id="h">
    <rect
       height="152"
       width="192"
       id="rect1922" />
  </clipPath>
  <mask
     id="i">
    <g
       filter="url(#b)"
       id="g1927">
      <rect
         fill-opacity="0.8"
         height="128"
         width="128"
         id="rect1925" />
    </g>
  </mask>
  <linearGradient
     id="j"
     gradientUnits="userSpaceOnUse"
     x1="16"
     x2="128"
     y1="96"
     y2="96">
    <stop
       offset="0"
       stop-color="#3584e4"
       id="stop1930" />
    <stop
       offset="0.428679"
       stop-color="#62a0ea"
       id="stop1932" />
    <stop
       offset="0.499994"
       stop-color="#c1d9f7"
       id="stop1934" />
    <stop
       offset="0.571308"
       stop-color="#62a0ea"
       id="stop1936" />
    <stop
       offset="1"
       stop-color="#3584e4"
       id="stop1938" />
  </linearGradient>
  <clipPath
     id="k">
    <rect
       height="152"
       width="192"
       id="rect1941" />
  </clipPath>
  <path
     d="m 69.65625 117.738281 l 48.082031 -48.082031 c 3.125 -3.125 3.125 -8.1875 0 -11.3125 l -48.082031 -48.082031 c -3.125 -3.125 -8.1875 -3.125 -11.3125 0 l -48.082031 48.082031 c -3.125 3.125 -3.125 8.1875 0 11.3125 l 48.082031 48.082031 c 3.125 3.125 8.1875 3.125 11.3125 0 z m 0 0"
     fill="url(#a)"
     id="path1944"
     style="fill-opacity:1.0" />
  <g
     clip-path="url(#k)"
     mask="url(#i)"
     transform="matrix(1 0 0 1 -8 -6)"
     id="g1960">
    <path
       d="m 16.496094 67 c -1.171875 2.886719 -0.585938 6.308594 1.765625 8.65625 l 48.082031 48.082031 c 3.132812 3.136719 8.179688 3.136719 11.3125 0 l 48.082031 -48.082031 c 2.351563 -2.347656 2.9375 -5.769531 1.769531 -8.65625 c -0.394531 0.964844 -0.980468 1.871094 -1.769531 2.65625 l -48.082031 48.082031 c -3.132812 3.136719 -8.179688 3.136719 -11.3125 0 l -48.082031 -48.082031 c -0.789063 -0.785156 -1.375 -1.691406 -1.765625 -2.65625 z m 0 0"
       fill="url(#j)"
       id="path1958"
       style="fill:#561a72;fill-opacity:1" />
  </g>
  <g
     id="g8694"
     transform="translate(-155.41633,-211.16847)">
    <path
       d="m 225.82278,249.53774 c -1.385,0 -2.5,0.892 -2.5,2 v 44 c 0,1.108 1.115,2 2.5,2 1.385,0 2.5,-0.892 2.5,-2 v -44 c 0,-1.108 -1.115,-2 -2.5,-2 z m -20,4 c -1.385,0 -2.5,0.892 -2.5,2 v 36 c 0,1.108 1.115,2 2.5,2 1.385,0 2.5,-0.892 2.5,-2 v -36 c 0,-1.108 -1.115,-2 -2.5,-2 z m 40,4 c -1.385,0 -2.5,0.892 -2.5,2 v 28 c 0,1.108 1.115,2 2.5,2 1.385,0 2.5,-0.892 2.5,-2 v -28 c 0,-1.108 -1.115,-2 -2.5,-2 z m -30,4 c -1.385,0 -2.5,0.892 -2.5,2 v 20 c 0,1.108 1.115,2 2.5,2 1.385,0 2.5,-0.892 2.5,-2 v -20 c 0,-1.108 -1.115,-2 -2.5,-2 z m -20,4 c -1.385,0 -2.5,0.892 -2.5,2 v 12 c 0,1.108 1.115,2 2.5,2 1.385,0 2.5,-0.892 2.5,-2 v -12 c 0,-1.108 -1.115,-2 -2.5,-2 z m 40,0 c -1.385,0 -2.5,0.892 -2.5,2 v 12 c 0,1.108 1.115,2 2.5,2 1.385,0 2.5,-0.892 2.5,-2 v -12 c 0,-1.108 -1.115,-2 -2.5,-2 z m -50,4 c -1.385,0 -2.5,0.892 -2.5,2 v 4 c 0,1.108 1.115,2 2.5,2 1.385,0 2.5,-0.892 2.5,-2 v -4 c 0,-1.108 -1.115,-2 -2.5,-2 z"
       fill="#808080"
       id="path8667"
       style="stroke-width:4.47214;fill:#ffffff;fill-opacity:1" />
  </g>
</svg>
